<svg width="14" height="14" viewBox="0 0 14 14" fill="none" xmlns="http://www.w3.org/2000/svg">
<path d="M14 4.29032C14 3.9162 13.6967 3.6129 13.3226 3.6129C12.9485 3.6129 12.6452 3.9162 12.6452 4.29032H14ZM6.09677 12.6452C5.72266 12.6452 5.41935 12.9485 5.41935 13.3226C5.41935 13.6967 5.72266 14 6.09677 14V12.6452ZM12.6452 4.29032C12.6452 4.66445 12.9485 4.96774 13.3226 4.96774C13.6967 4.96774 14 4.66445 14 4.29032H12.6452ZM6.09677 0C5.72266 0 5.41935 0.303294 5.41935 0.677419C5.41935 1.05154 5.72266 1.35484 6.09677 1.35484V0ZM13.3226 4.96774C13.6967 4.96774 14 4.66445 14 4.29032C14 3.9162 13.6967 3.6129 13.3226 3.6129V4.96774ZM6.09677 3.6129C5.72266 3.6129 5.41935 3.9162 5.41935 4.29032C5.41935 4.66445 5.72266 4.96774 6.09677 4.96774V3.6129ZM1.35484 7C1.35484 6.62588 1.05154 6.32258 0.677419 6.32258C0.303294 6.32258 0 6.62588 0 7H1.35484ZM6.09677 14C6.47089 14 6.77419 13.6967 6.77419 13.3226C6.77419 12.9485 6.47089 12.6452 6.09677 12.6452V14ZM0 7C0 7.37412 0.303294 7.67742 0.677419 7.67742C1.05154 7.67742 1.35484 7.37412 1.35484 7H0ZM6.09677 1.35484C6.47089 1.35484 6.77419 1.05154 6.77419 0.677419C6.77419 0.303294 6.47089 0 6.09677 0V1.35484ZM0.677419 6.32258C0.303294 6.32258 0 6.62588 0 7C0 7.37412 0.303294 7.67742 0.677419 7.67742V6.32258ZM6.09677 7.67742C6.47089 7.67742 6.77419 7.37412 6.77419 7C6.77419 6.62588 6.47089 6.32258 6.09677 6.32258V7.67742ZM6.77419 7C6.77419 6.62588 6.47089 6.32258 6.09677 6.32258C5.72266 6.32258 5.41935 6.62588 5.41935 7H6.77419ZM5.41935 13.3226C5.41935 13.6967 5.72266 14 6.09677 14C6.47089 14 6.77419 13.6967 6.77419 13.3226H5.41935ZM5.41935 7C5.41935 7.37412 5.72266 7.67742 6.09677 7.67742C6.47089 7.67742 6.77419 7.37412 6.77419 7H5.41935ZM6.77419 4.29032C6.77419 3.9162 6.47089 3.6129 6.09677 3.6129C5.72266 3.6129 5.41935 3.9162 5.41935 4.29032H6.77419ZM6.77419 0.677419C6.77419 0.303294 6.47089 0 6.09677 0C5.72266 0 5.41935 0.303294 5.41935 0.677419H6.77419ZM5.41935 4.29032C5.41935 4.66445 5.72266 4.96774 6.09677 4.96774C6.47089 4.96774 6.77419 4.66445 6.77419 4.29032H5.41935ZM12.6452 4.29032V9.70968H14V4.29032H12.6452ZM12.6452 9.70968C12.6452 11.3309 11.3309 12.6452 9.70968 12.6452V14C12.0792 14 14 12.0792 14 9.70968H12.6452ZM9.70968 12.6452H6.09677V14H9.70968V12.6452ZM14 4.29032C14 1.92085 12.0792 0 9.70968 0V1.35484C11.3309 1.35484 12.6452 2.6691 12.6452 4.29032H14ZM9.70968 0H6.09677V1.35484H9.70968V0ZM13.3226 3.6129H6.09677V4.96774H13.3226V3.6129ZM0 7V9.70968H1.35484V7H0ZM0 9.70968C0 12.0792 1.92085 14 4.29032 14V12.6452C2.6691 12.6452 1.35484 11.3309 1.35484 9.70968H0ZM4.29032 14H6.09677V12.6452H4.29032V14ZM1.35484 7V4.29032H0V7H1.35484ZM1.35484 4.29032C1.35484 2.6691 2.6691 1.35484 4.29032 1.35484V0C1.92085 0 0 1.92085 0 4.29032H1.35484ZM4.29032 1.35484H6.09677V0H4.29032V1.35484ZM0.677419 7.67742H6.09677V6.32258H0.677419V7.67742ZM5.41935 7V13.3226H6.77419V7H5.41935ZM6.77419 7V4.29032H5.41935V7H6.77419ZM5.41935 0.677419V4.29032H6.77419V0.677419H5.41935Z" fill="white"/>
</svg>
