<svg width="14" height="16" viewBox="0 0 14 16" fill="none" xmlns="http://www.w3.org/2000/svg">
<path fill-rule="evenodd" clip-rule="evenodd" d="M6.17384 0.058406C5.77104 0.152449 5.36793 0.397582 5.05706 0.737525C4.90418 0.904665 4.73201 1.10246 4.67447 1.177C4.59621 1.27845 4.53744 1.3126 4.44115 1.3126C4.31079 1.3126 3.88703 1.51792 3.75318 1.6459C3.61694 1.77617 3.45914 2.06647 3.33116 2.4223C3.21498 2.74529 3.20473 2.81171 3.21704 3.16238C3.22757 3.46269 3.25155 3.59347 3.32584 3.75525C3.45958 4.04666 3.45096 4.40729 3.3075 4.521C3.16785 4.63169 3.02518 4.95337 2.99301 5.23001C2.93949 5.69068 3.18444 6.44013 3.49412 6.76318C3.65335 6.92925 3.94238 7.10248 4.06032 7.10248C4.0872 7.10248 4.13898 7.16472 4.17535 7.24084C4.4136 7.73932 4.83017 8.40392 5.04959 8.63561C5.40474 9.01063 6.08009 9.27369 6.68789 9.27369C7.26496 9.27369 7.92828 9.01003 8.276 8.64246C8.50936 8.39579 8.89933 7.77138 9.12769 7.27877C9.17879 7.16855 9.24038 7.11823 9.39639 7.05935C9.82599 6.89711 10.0893 6.55065 10.2626 5.9193C10.3391 5.64053 10.36 5.48502 10.3467 5.29233C10.3263 4.99816 10.1709 4.62858 10.0243 4.52556C9.9031 4.44045 9.88726 4.34032 9.85922 3.4838C9.80744 1.90074 9.52616 1.18467 8.72958 0.608019C8.39346 0.364716 7.91216 0.14304 7.53879 0.0595129C7.18606 -0.0193742 6.50925 -0.0199277 6.17384 0.058406ZM5.35487 2.88715C5.35487 2.98115 5.09359 3.38933 4.92241 3.56278C4.71545 3.77245 4.29697 4.07982 4.21843 4.07982C4.13187 4.07982 4.08422 4.23048 4.08422 4.50427C4.08422 4.72058 4.06929 4.77797 3.99488 4.84732C3.62035 5.19642 3.63493 5.17096 3.65915 5.43393C3.69314 5.80218 3.78951 6.08704 3.93952 6.26265C4.06111 6.40497 4.09538 6.42132 4.27204 6.42132C4.41026 6.42132 4.4869 6.44354 4.5291 6.49582C4.58148 6.56078 4.74912 6.87344 4.95707 7.29406C5.24229 7.87109 5.53168 8.21946 5.86837 8.39107C6.12047 8.51964 6.14707 8.52407 6.66522 8.52411C7.18539 8.52411 7.20862 8.52019 7.44936 8.39175C7.5858 8.31891 7.7519 8.20498 7.81845 8.13857C8.00519 7.95223 8.29474 7.4698 8.58087 6.86833C8.62543 6.77467 8.70615 6.63576 8.76023 6.55968C8.84807 6.43609 8.87976 6.42132 9.05697 6.42132C9.2353 6.42132 9.26909 6.40527 9.39091 6.26265C9.54093 6.08704 9.6373 5.80218 9.67129 5.43393C9.69551 5.17096 9.71008 5.19642 9.33556 4.84732C9.26154 4.77831 9.24622 4.72037 9.24622 4.50985C9.24622 4.14866 9.19885 4.03725 9.04534 4.03725C8.66541 4.03725 6.87527 3.67836 6.5461 3.53617C6.27727 3.42007 5.88183 3.19124 5.65267 3.01912C5.41506 2.84066 5.35487 2.81396 5.35487 2.88715ZM3.29007 9.8955C2.62397 10.1852 2.06548 10.4225 2.049 10.4227C2.03248 10.4229 1.79344 10.5393 1.51779 10.6813C1.07688 10.9084 0.98178 10.9773 0.726936 11.2541C0.524069 11.4744 0.394821 11.6619 0.29579 11.8793C0.0348311 12.4524 0.0229985 12.5445 0.0046139 14.1483C-0.00634542 15.1032 0.00227088 15.6356 0.0299074 15.7128C0.0529379 15.7772 0.130289 15.8681 0.201802 15.9149C0.330336 15.9988 0.405344 15.9999 6.65394 16C12.5132 16.0002 12.9864 15.9949 13.1171 15.928C13.3363 15.816 13.3455 15.7357 13.327 14.1044C13.3115 12.7398 13.3055 12.6414 13.2199 12.3602C13.0838 11.9131 12.8729 11.5419 12.5705 11.2174C12.3372 10.9671 12.2293 10.8908 11.8028 10.6746C11.5298 10.5363 11.2841 10.4231 11.2567 10.4231C11.2293 10.4231 11.1278 10.3822 11.0311 10.3321C10.9345 10.2821 10.8105 10.2262 10.7556 10.2081C10.7007 10.1899 10.2362 9.99142 9.72323 9.76693C9.21032 9.54249 8.74522 9.35883 8.68975 9.35883C8.54708 9.35883 8.42185 9.46603 8.37741 9.62614C8.35649 9.70158 8.22041 10.1081 8.07504 10.5296C7.92963 10.951 7.78533 11.3821 7.75432 11.4875C7.72331 11.5928 7.67999 11.7078 7.65807 11.7429C7.62265 11.7996 7.61387 11.7996 7.57909 11.7429C7.55761 11.7078 7.53974 11.6443 7.53938 11.6017C7.53907 11.5592 7.52155 11.4899 7.50051 11.4478C7.4587 11.364 7.48685 11.2463 7.64647 10.8376C7.75265 10.5656 7.74431 10.485 7.59438 10.3341C7.49348 10.2325 7.48459 10.2316 6.66514 10.2316C5.84565 10.2316 5.8368 10.2325 5.73598 10.3341C5.58914 10.482 5.57782 10.5658 5.6738 10.7945C5.84657 11.2063 5.86856 11.3371 5.8044 11.5718C5.77227 11.6893 5.73189 11.7855 5.71466 11.7855C5.69742 11.7855 5.65541 11.704 5.6213 11.6045C5.58719 11.505 5.49444 11.232 5.41514 10.9979C5.33589 10.7637 5.20052 10.3686 5.1144 10.1199C5.02827 9.87115 4.95779 9.64517 4.95779 9.61771C4.95779 9.50949 4.76441 9.35879 4.63199 9.36377C4.56004 9.36645 3.95616 9.60575 3.29007 9.8955ZM8.96826 12.5809C8.9355 12.5943 8.86852 12.6444 8.81936 12.6924C8.73315 12.7764 8.73002 12.8058 8.73002 13.5318C8.73002 14.2423 8.73466 14.2886 8.81356 14.3652C8.89147 14.4408 8.98327 14.4471 10.1832 14.4586C11.0414 14.4668 11.4956 14.4558 11.5485 14.4254C11.7221 14.3258 11.7542 14.1652 11.7406 13.4644C11.728 12.8127 11.7273 12.8082 11.6179 12.691L11.5078 12.5731L10.2679 12.5649C9.58584 12.5604 9.00102 12.5677 8.96826 12.5809Z" fill="#2B2727" fill-opacity="0.5"/>
</svg>
