<svg width="60" height="60" viewBox="0 0 60 60" fill="none" xmlns="http://www.w3.org/2000/svg">
<path d="M42.5 30C49.4035 30 55 24.4036 55 17.5C55 10.5964 49.4035 5 42.5 5C35.5965 5 30 10.5964 30 17.5C30 19.4996 30.4695 21.3896 31.3042 23.0656C31.5262 23.511 31.6 24.0201 31.4715 24.5008L30.727 27.2832C30.4038 28.4912 31.5088 29.5962 32.7168 29.273L35.4993 28.5285C35.98 28.4 36.489 28.4738 36.9345 28.6958C38.6105 29.5305 40.5005 30 42.5 30Z" stroke="#FF8A00" stroke-width="3.75"/>
<path d="M5.01638 24.8327C4.83553 29.603 6.04283 37.7043 14.1693 45.8308C16.1298 47.7913 18.0888 49.349 20 50.5818M8.84453 17.3431C12.3269 13.8607 17.8829 14.3286 20.094 18.2904L21.7165 21.1978C23.1808 23.8215 22.593 27.2632 20.2868 29.5695C20.2868 29.5695 17.4897 32.367 22.5613 37.4388C27.6313 42.5088 30.4305 39.7132 30.4305 39.7132C32.7368 37.407 36.1785 36.8193 38.8023 38.2835L41.7095 39.906C45.6715 42.117 46.1393 47.673 42.657 51.1555C40.5645 53.248 38.001 54.8763 35.1673 54.9835C33.1323 55.0608 30.4908 54.8852 27.5 54.0277" stroke="#FEB702" stroke-width="3.75" stroke-linecap="round"/>
</svg>
