<svg width="60" height="60" viewBox="0 0 60 60" fill="none" xmlns="http://www.w3.org/2000/svg">
<path d="M31.3746 36.575L48.6246 25C49.0006 24.7524 49.4365 24.6109 49.8862 24.5905C50.336 24.5701 50.7829 24.6715 51.1798 24.884C51.5767 25.0965 51.9088 25.4123 52.1411 25.7979C52.3734 26.1836 52.4973 26.6248 52.4996 27.075V50C52.4996 50.6631 52.2362 51.299 51.7674 51.7678C51.2985 52.2366 50.6626 52.5 49.9996 52.5H9.9996C9.33656 52.5 8.70067 52.2366 8.23183 51.7678C7.76299 51.299 7.4996 50.6631 7.4996 50V27.175C7.48343 26.7164 7.59382 26.2621 7.81868 25.862C8.04354 25.4619 8.37419 25.1315 8.7744 24.9068C9.17461 24.6822 9.62893 24.5721 10.0876 24.5885C10.5462 24.605 10.9915 24.7473 11.3746 25L28.6246 36.475C29.0229 36.7589 29.4958 36.9197 29.9846 36.9374C30.4734 36.9552 30.9567 36.8292 31.3746 36.575Z" fill="#FFE7CB"/>
<path d="M28.6246 36.575C29.0328 36.8438 29.5108 36.9871 29.9996 36.9871C30.4884 36.9871 30.9664 36.8438 31.3746 36.575L44.9996 27.5V7.5H14.9996V27.5L28.6246 36.575ZM28.6246 36.575L11.3746 25C10.9915 24.7473 10.5462 24.6049 10.0876 24.5885C9.62893 24.5721 9.17461 24.6822 8.7744 24.9068C8.37419 25.1315 8.04354 25.4619 7.81868 25.862C7.59382 26.2621 7.48343 26.7163 7.4996 27.175V50C7.4996 50.663 7.76299 51.2989 8.23183 51.7678C8.70067 52.2366 9.33656 52.5 9.9996 52.5H49.9996C50.6626 52.5 51.2985 52.2366 51.7674 51.7678C52.2362 51.2989 52.4996 50.663 52.4996 50V27.175C52.5158 26.7163 52.4054 26.2621 52.1805 25.862C51.9557 25.4619 51.625 25.1315 51.2248 24.9068C50.8246 24.6822 50.3703 24.5721 49.9116 24.5885C49.453 24.6049 49.0077 24.7473 48.6246 25L31.3746 36.475C30.9763 36.7589 30.5034 36.9196 30.0146 36.9374C29.5258 36.9552 29.0425 36.8292 28.6246 36.575Z" stroke="#FEB702" stroke-width="5" stroke-linecap="round" stroke-linejoin="round"/>
</svg>
