<svg width="20" height="16" viewBox="0 0 20 16" fill="none" xmlns="http://www.w3.org/2000/svg">
<path d="M1 9H4.83726C5.08185 9 5.20414 9 5.31923 9.0276C5.42127 9.0521 5.51881 9.0925 5.60828 9.1474C5.7092 9.2092 5.79568 9.2957 5.96863 9.4686L6.56274 10.0627C6.90865 10.4086 7.0816 10.5816 7.28343 10.7053C7.46237 10.8149 7.65746 10.8957 7.86154 10.9447C8.0917 11 8.3363 11 8.8255 11H11.1745C11.6637 11 11.9083 11 12.1385 10.9447C12.3425 10.8957 12.5376 10.8149 12.7166 10.7053C12.9184 10.5816 13.0914 10.4086 13.4373 10.0627L14.0314 9.4686C14.2043 9.2957 14.2908 9.2092 14.3917 9.1474C14.4812 9.0925 14.5787 9.0521 14.6808 9.0276C14.7959 9 14.9182 9 15.1627 9H19M4.2 15H15.8C16.9201 15 17.4802 15 17.908 14.782C18.2843 14.5903 18.5903 14.2843 18.782 13.908C19 13.4802 19 12.9201 19 11.8V4.2C19 3.07989 19 2.51984 18.782 2.09202C18.5903 1.71569 18.2843 1.40973 17.908 1.21799C17.4802 1 16.9201 1 15.8 1H4.2C3.0799 1 2.51984 1 2.09202 1.21799C1.71569 1.40973 1.40973 1.71569 1.21799 2.09202C1 2.51984 1 3.07989 1 4.2V11.8C1 12.9201 1 13.4802 1.21799 13.908C1.40973 14.2843 1.71569 14.5903 2.09202 14.782C2.51984 15 3.07989 15 4.2 15Z" stroke="#2B2727" stroke-opacity="0.5" stroke-width="2" stroke-linecap="round" stroke-linejoin="round"/>
</svg>
