<svg width="24" height="19" viewBox="0 0 24 19" fill="none" xmlns="http://www.w3.org/2000/svg">
<path d="M21.375 0.300721C21.1171 0.133894 20.8222 0.0329668 20.5162 0.0068117C20.2102 -0.0193434 19.9024 0.0300744 19.62 0.150721L10.365 3.79572C10.1459 3.8849 9.91156 3.93074 9.675 3.93072H3.75C3.25272 3.93072 2.77581 4.12827 2.42417 4.4799C2.07254 4.83153 1.875 5.30844 1.875 5.80572V5.95572H0V10.4557H1.875V10.6507C1.88675 11.1402 2.08947 11.6056 2.43983 11.9476C2.7902 12.2895 3.26042 12.4809 3.75 12.4807L6 17.2507C6.15236 17.5719 6.39222 17.8437 6.69204 18.0347C6.99187 18.2257 7.33949 18.3283 7.695 18.3307H8.64C9.13468 18.3268 9.60775 18.1275 9.95614 17.7763C10.3045 17.4251 10.5 16.9504 10.5 16.4557V12.6607L19.62 16.3057C19.8443 16.395 20.0836 16.4408 20.325 16.4407C20.6996 16.4347 21.0643 16.32 21.375 16.1107C21.6217 15.9441 21.8252 15.7212 21.9687 15.4604C22.1121 15.1995 22.1914 14.9083 22.2 14.6107V1.84572C22.1986 1.5405 22.1228 1.24022 21.979 0.970971C21.8352 0.701724 21.6279 0.471646 21.375 0.300721ZM8.625 5.80572V10.6507H3.75V5.80572H8.625ZM8.625 16.4557H7.68L5.835 12.4807H8.625V16.4557ZM11.055 10.8757C10.8769 10.7847 10.6912 10.7094 10.5 10.6507V5.70072C10.6894 5.66165 10.875 5.60645 11.055 5.53572L20.325 1.84572V14.5657L11.055 10.8757ZM22.245 6.33072V10.0807C22.7423 10.0807 23.2192 9.88318 23.5708 9.53155C23.9225 9.17992 24.12 8.703 24.12 8.20572C24.12 7.70844 23.9225 7.23153 23.5708 6.8799C23.2192 6.52827 22.7423 6.33072 22.245 6.33072Z" fill="#2B2727" fill-opacity="0.5"/>
</svg>
