<svg width="24" height="24" viewBox="0 0 24 24" fill="none" xmlns="http://www.w3.org/2000/svg">
<path fill-rule="evenodd" clip-rule="evenodd" d="M14.854 0.705855C10.4069 2.92194 10.1567 9.09048 14.4071 11.7186C15.5543 12.4278 15.9795 12.5346 17.6558 12.5346C19.3317 12.5346 19.7578 12.4276 20.9057 11.7186C25.2236 9.05165 24.9162 2.75287 20.3648 0.633585C18.5006 -0.23446 16.6936 -0.210729 14.854 0.705855ZM16.0809 1.73705C13.0596 2.81408 11.8593 6.39197 13.6186 9.07673C14.0579 9.74711 14.0986 9.7579 14.3559 9.27278C14.7895 8.45543 15.9725 7.27619 16.3592 7.27619C16.87 7.27619 16.795 6.89435 16.174 6.33237C15.4866 5.71026 15.4693 4.30397 16.1392 3.47691C16.8403 2.61102 18.4739 2.61102 19.175 3.47691C19.8503 4.31098 19.8327 5.80221 19.1402 6.39493C18.5189 6.92698 18.4453 7.27619 18.955 7.27619C19.3436 7.27619 20.5252 8.45651 20.9642 9.28329C21.2234 9.77138 21.2792 9.74603 21.7851 8.91439C23.0067 6.90567 22.7284 4.59844 21.0632 2.93354C20.166 2.03637 18.5793 1.32985 17.5223 1.35682C17.2998 1.36275 16.6513 1.53372 16.0809 1.73705ZM17.0776 4.72168C16.9784 4.98082 17.0649 5.27475 17.2806 5.41147C17.8151 5.74936 18.1964 5.56356 18.1964 4.96518C18.1964 4.31394 17.3084 4.1206 17.0776 4.72168ZM8.54492 5.0175C8.43975 5.12266 8.35373 5.61318 8.35373 6.10774C8.35373 6.8868 8.26393 7.00653 7.67957 7.00653C7.02968 7.00653 7.00541 7.06936 7.00541 8.75934V10.5121H7.8144C8.55598 10.5121 8.62339 10.435 8.62339 9.5872C8.62339 8.83296 8.73557 8.64608 9.23013 8.57597C9.78833 8.49669 9.83687 8.34918 9.83687 6.73687C9.83687 5.17768 9.77593 4.97543 9.28649 4.90532C8.98366 4.8619 8.65009 4.9126 8.54492 5.0175ZM16.7901 8.75287C15.863 9.15601 15.3393 10.3247 15.8547 10.8401C16.0132 10.9986 16.8244 11.1286 17.6571 11.1286C18.4898 11.1286 19.301 10.9986 19.4595 10.8401C19.9339 10.3657 19.4584 9.20266 18.6104 8.76419C17.6803 8.28311 17.8677 8.28446 16.7901 8.75287ZM3.22582 13.8155C0.581773 16.459 -0.00932765 17.4214 0.000110555 19.0653C0.00685213 20.234 0.754088 22.027 1.51643 22.7041C2.87795 23.913 5.20461 24.3154 6.8118 23.6197C7.63589 23.2632 12.6683 18.5265 12.6683 18.1077C12.6683 17.9985 12.0279 17.2772 11.2453 16.5043L9.82258 15.0988L7.54339 17.3899C5.23858 19.7068 4.69494 20.0286 4.39723 19.2522C4.28344 18.9558 4.95139 18.1021 6.56478 16.4809L8.89683 14.138L7.47085 12.7296C6.6864 11.9548 5.9718 11.3211 5.88254 11.3211C5.79355 11.3211 4.59786 12.4437 3.22582 13.8155ZM5.37611 13.6268C5.08973 13.9722 5.10726 14.1229 5.47804 14.4935C5.89656 14.9122 5.95696 14.9122 6.37548 14.4935C6.74627 14.1229 6.7638 13.9722 6.47741 13.6268C6.28649 13.397 6.03867 13.2088 5.92676 13.2088C5.81485 13.2088 5.56703 13.397 5.37611 13.6268ZM15.5562 14.186C15.451 14.2912 15.365 14.5997 15.365 14.8718C15.365 15.2569 15.1565 15.3661 14.4211 15.3661C13.5523 15.3661 13.4773 15.4303 13.4773 16.1751V16.9841H15.2301C16.9085 16.9841 16.9829 16.956 16.9829 16.3261C16.9829 15.7606 17.1248 15.6565 17.9942 15.5845C18.8709 15.512 19.0054 15.4111 19.0054 14.8268C19.0054 14.1906 18.9132 14.148 17.3764 14.0739C16.4803 14.0304 15.6613 14.0809 15.5562 14.186ZM2.7531 16.3032C2.15229 16.9857 1.59301 17.9446 1.49674 18.458C1.06878 20.7402 3.25953 22.9188 5.55058 22.489C6.04865 22.3957 7.00973 21.8318 7.68631 21.2364C8.85665 20.2063 8.8944 20.1291 8.46159 19.651C8.02123 19.1646 7.97458 19.1775 6.99651 20.0612C6.44101 20.563 5.73234 21.0543 5.42168 21.153C4.14079 21.5594 2.43004 19.8487 2.83643 18.5678C2.93512 18.2571 3.42645 17.5485 3.92829 16.993C4.81198 16.0149 4.82492 15.9682 4.33845 15.5279C3.86034 15.0951 3.78321 15.1328 2.7531 16.3032ZM9.42105 17.6717C9.13467 18.0171 9.1522 18.1679 9.52299 18.5384C9.9415 18.9572 10.0019 18.9572 10.4204 18.5384C10.7912 18.1679 10.8087 18.0171 10.5224 17.6717C10.3314 17.4419 10.0836 17.2537 9.97171 17.2537C9.8598 17.2537 9.61198 17.4419 9.42105 17.6717Z" fill="#2B2727" fill-opacity="0.5"/>
</svg>
