<svg width="60" height="60" viewBox="0 0 60 60" fill="none" xmlns="http://www.w3.org/2000/svg">
<path d="M22.5 5H37.5C50 5 55 10 55 22.5V37.5C55 50 50 55 37.5 55H22.5C10 55 5 50 5 37.5V22.5C5 10 10 5 22.5 5Z" stroke="#FF8A00" stroke-width="3.75" stroke-linecap="round" stroke-linejoin="round"/>
<path d="M21.4248 38.1752L37.7746 21.8252" stroke="#FFE7CB" stroke-width="3.75" stroke-linecap="round" stroke-linejoin="round"/>
<path d="M22.45 25.9244C24.1483 25.9244 25.525 24.5477 25.525 22.8494C25.525 21.1512 24.1483 19.7744 22.45 19.7744C20.7518 19.7744 19.375 21.1512 19.375 22.8494C19.375 24.5477 20.7518 25.9244 22.45 25.9244Z" stroke="#FEB702" stroke-width="3.75" stroke-linecap="round" stroke-linejoin="round"/>
<path d="M38.7996 40.2252C40.4979 40.2252 41.8746 38.8484 41.8746 37.1502C41.8746 35.4519 40.4979 34.0752 38.7996 34.0752C37.1014 34.0752 35.7246 35.4519 35.7246 37.1502C35.7246 38.8484 37.1014 40.2252 38.7996 40.2252Z" stroke="#FEB702" stroke-width="3.75" stroke-linecap="round" stroke-linejoin="round"/>
</svg>
