<svg width="60" height="60" viewBox="0 0 60 60" fill="none" xmlns="http://www.w3.org/2000/svg">
<path d="M37.5 10V12.5C37.5 17.214 37.5 19.5711 38.9645 21.0355C40.429 22.5 42.786 22.5 47.5 22.5H51.25M51.25 22.5L45 17.5M51.25 22.5L45 27.5" stroke="#FF8A00" stroke-width="3.75" stroke-linecap="round" stroke-linejoin="round"/>
<path d="M38.8905 36.3692L37.7517 37.568C37.7517 37.568 35.0452 40.4175 27.6577 32.6397C20.2703 24.8621 22.9767 22.0127 22.9767 22.0127L23.6938 21.2578C25.4602 19.3981 25.6267 16.4124 24.0856 14.2328L20.9331 9.77403C19.0257 7.07625 15.3399 6.71988 13.1536 9.0216L9.22962 13.1529C8.14557 14.2942 7.41912 15.7736 7.50722 17.4149C7.7326 21.6137 9.52677 30.6475 19.5384 41.188C30.1552 52.3655 40.117 52.8097 44.1907 52.4078C45.4792 52.2805 46.5997 51.5858 47.5027 50.635L51.0542 46.896C53.4515 44.3722 52.7755 40.0455 49.7082 38.28L44.932 35.5308C42.918 34.3715 40.4645 34.712 38.8905 36.3692Z" fill="#FEB702"/>
</svg>
