<svg width="20" height="20" viewBox="0 0 20 20" fill="none" xmlns="http://www.w3.org/2000/svg">
<path fill-rule="evenodd" clip-rule="evenodd" d="M17.8 8.18C17.49 5 15.61 0 9.80005 0C3.99005 0 2.11005 5 1.80005 8.18C0.712559 8.59273 -0.00476454 9.63683 2.38268e-05 10.8V12.2C2.38268e-05 13.7464 1.25365 15 2.80005 15C4.34645 15 5.60005 13.7464 5.60005 12.2V10.8C5.59502 9.66194 4.90404 8.6393 3.85005 8.21C4.05005 6.37 5.03005 2 9.80005 2C14.57 2 15.54 6.37 15.74 8.21C14.6882 8.64023 14.0007 9.66356 14 10.8V12.2C14.0044 13.275 14.6217 14.2533 15.59 14.72C15.17 15.51 14.1 16.58 11.47 16.9C10.9443 16.1017 9.9272 15.787 9.04249 16.1489C8.15779 16.5108 7.65283 17.4481 7.83733 18.386C8.02182 19.3239 8.84418 20 9.80005 20C10.5554 19.9958 11.2439 19.5664 11.58 18.89C15.87 18.4 17.24 16.19 17.67 14.89C18.8334 14.5132 19.6157 13.4227 19.6 12.2V10.8C19.6049 9.63683 18.8875 8.59273 17.8 8.18ZM3.60005 12.2C3.60005 12.6418 3.24188 13 2.80005 13C2.35822 13 2.00005 12.6418 2.00005 12.2V10.8C2.00005 10.5142 2.15253 10.2501 2.40005 10.1072C2.64757 9.96427 2.95253 9.96427 3.20005 10.1072C3.44757 10.2501 3.60005 10.5142 3.60005 10.8V12.2ZM16 10.8C16 10.3582 16.3582 10 16.8 10C17.2419 10 17.6 10.3582 17.6 10.8V12.2C17.6 12.6418 17.2419 13 16.8 13C16.3582 13 16 12.6418 16 12.2V10.8Z" fill="#2B2727" fill-opacity="0.5"/>
</svg>
