<svg width="24" height="24" viewBox="0 0 24 24" fill="none" xmlns="http://www.w3.org/2000/svg">
<path d="M21.086 9.03846C20.1404 7.45926 19.2092 6.82086 18.6236 6.56646C18.59 6.55206 18.5564 6.53766 18.5276 6.52806C18.5228 6.52806 18.5228 6.52806 18.518 6.52326C18.4892 6.51366 18.4604 6.49926 18.4316 6.49446C18.4268 6.49446 18.4268 6.49446 18.422 6.48966C18.3932 6.48006 18.3644 6.47046 18.3404 6.46566C18.3404 6.46566 18.3404 6.46566 18.3356 6.46566C18.3116 6.45606 18.2876 6.45126 18.2636 6.44646C18.2588 6.44646 18.2588 6.44646 18.254 6.44646C18.2348 6.44166 18.2108 6.43686 18.1916 6.43206H18.1868C18.1676 6.42726 18.1484 6.42246 18.134 6.42246C18.1196 6.41766 18.1052 6.41766 18.0908 6.41286C18.0908 6.41286 18.0908 6.41286 18.086 6.41286C18.0716 6.41286 18.062 6.40806 18.0524 6.40806C18.0236 6.40326 18.0092 6.40326 18.0092 6.40326C17.27 4.57446 13.9964 3.80646 13.9964 3.80646L11.9372 3.73926C11.4524 3.76806 9.73398 4.16166 7.86678 4.97286C7.78998 5.00646 7.70838 5.04006 7.63158 5.07846C6.05238 5.78886 4.39638 6.79206 3.30678 8.12166C3.23958 8.19846 3.17718 8.28006 3.11958 8.36166C2.30358 9.45126 1.87638 10.7473 2.14998 12.2641C2.20758 12.5761 2.26998 12.8641 2.33238 13.1329C3.48438 17.8993 5.95638 16.8529 6.07638 16.8001C6.08118 16.8001 6.08118 16.8001 6.08118 16.8001C6.08118 16.8001 8.70198 18.9121 10.8284 18.3313C11.7932 18.0673 12.2444 17.8465 12.4556 17.6785C12.5852 17.5777 12.6236 17.5009 12.6284 17.4433C12.6284 17.4337 12.6284 17.4289 12.6284 17.4241C12.6236 17.3857 12.6092 17.3665 12.6092 17.3665C13.574 17.8177 14.1068 18.0001 14.7596 18.6385C15.4172 19.2769 16.406 20.2657 16.406 20.2657L17.2988 20.0209L16.5884 18.5281C16.5884 18.5281 17.7212 19.1521 19.3532 17.4433C20.5676 16.1761 20.5484 15.0001 20.4572 14.4817C20.4572 14.4673 20.4524 14.4577 20.4524 14.4433C20.4524 14.4385 20.4524 14.4385 20.4524 14.4337C20.4428 14.3953 20.438 14.3617 20.4284 14.3329C20.4284 14.3281 20.4284 14.3233 20.4236 14.3233C20.4236 14.3137 20.4188 14.3089 20.4188 14.2993C20.4188 14.2945 20.4188 14.2945 20.414 14.2897C20.4092 14.2801 20.4092 14.2657 20.4044 14.2561C20.4044 14.2513 20.4044 14.2513 20.3996 14.2465C20.3996 14.2417 20.3948 14.2369 20.3948 14.2321C20.39 14.2129 20.3852 14.1985 20.3852 14.1985C21.8396 13.1089 22.6364 11.6353 21.086 9.03846Z" stroke="#2B2727" stroke-opacity="0.5" stroke-miterlimit="10"/>
<path d="M18.2834 6.60964C18.5906 6.87844 18.7731 7.04164 18.5811 7.54084C18.4755 7.80964 17.8322 7.95844 17.3043 8.00644C17.2466 7.89124 17.1315 7.81444 16.9971 7.81444C16.8099 7.81444 16.6562 7.96804 16.6562 8.15524C16.6562 8.34244 16.8099 8.49604 16.9971 8.49604C17.1459 8.49604 17.2754 8.40004 17.3186 8.26564C17.7986 8.22244 18.6483 8.07844 18.8211 7.63204C19.0323 7.08484 18.8642 6.80164 18.6243 6.56644C18.3411 6.44164 18.1443 6.40804 18.0579 6.39844C18.1347 6.47524 18.2114 6.54244 18.2834 6.60964Z" fill="#BBBBBB"/>
<path d="M20.4674 14.4817C20.4482 14.3617 20.4242 14.2753 20.4098 14.2321C20.1698 14.2513 19.4738 14.2609 18.9602 14.1409C18.4466 14.0209 18.0386 13.6801 17.8274 13.4737C17.837 13.4401 17.8466 13.4017 17.8466 13.3633C17.8466 13.1761 17.693 13.0225 17.5058 13.0225C17.3186 13.0225 17.165 13.1761 17.165 13.3633C17.165 13.5505 17.3186 13.7041 17.5058 13.7041C17.5634 13.7041 17.6162 13.6897 17.6594 13.6657C17.8946 13.8913 18.3362 14.2513 18.9026 14.3857C19.2578 14.4721 19.6994 14.4961 20.0402 14.4961C20.2178 14.4961 20.3762 14.4865 20.4674 14.4817Z" fill="#BBBBBB"/>
<path d="M13.0506 13.3011C12.897 13.3011 12.7674 13.4067 12.7242 13.5459C12.3162 13.6467 11.7834 13.6755 11.1786 13.1619C10.8666 12.8979 10.6026 12.2883 10.5018 12.0339C10.6074 11.9763 10.6842 11.8659 10.6842 11.7363C10.6842 11.5491 10.5306 11.3955 10.3434 11.3955C10.1562 11.3955 10.0026 11.5491 10.0026 11.7363C10.0026 11.8851 10.1034 12.0147 10.2378 12.0579C10.3194 12.2739 10.617 13.0227 11.0154 13.3587C11.4378 13.7139 11.8314 13.8387 12.1818 13.8579C12.1818 13.8627 12.177 13.8627 12.177 13.8675C12.009 14.2179 11.8458 14.5443 11.0922 14.5683C10.5402 14.5827 9.97377 14.1987 9.96897 14.1939L9.82017 14.4051C9.58017 14.6595 9.23457 14.6115 8.55777 14.2707C8.29377 14.1363 8.10657 13.9059 7.99617 13.7187C8.04897 13.6611 8.08257 13.5795 8.08257 13.4979C8.08257 13.3107 7.92897 13.1571 7.74177 13.1571C7.55457 13.1571 7.40097 13.3107 7.40097 13.4979C7.40097 13.6851 7.55457 13.8387 7.74177 13.8387C7.75137 13.8387 7.75617 13.8387 7.76577 13.8339C7.89537 14.0499 8.11137 14.3331 8.44257 14.4963C8.54337 14.5491 8.64897 14.5971 8.75457 14.6451C8.71617 15.0483 8.36577 15.6771 7.64097 16.2531C7.20417 16.6035 6.08577 16.7859 6.07617 16.7859V16.7907C6.09057 16.7859 6.09537 16.7811 6.09537 16.7811C6.09537 16.7811 6.19617 16.8627 6.37377 16.9875C6.75297 16.9059 7.44897 16.7283 7.79937 16.4499C8.46657 15.9219 8.91777 15.2643 8.99937 14.7315C9.14817 14.7795 9.29697 14.8131 9.43617 14.8131C9.66177 14.8131 9.86817 14.7363 10.041 14.5251C10.2762 14.6499 10.6554 14.8131 11.049 14.8131C11.0634 14.8131 11.0778 14.8131 11.0874 14.8131C11.9994 14.7891 12.2202 14.3331 12.3978 13.9683C12.4218 13.9251 12.441 13.8819 12.4602 13.8387C12.561 13.8291 12.657 13.8099 12.7434 13.7907C12.801 13.8963 12.9114 13.9683 13.041 13.9683C13.2282 13.9683 13.3818 13.8147 13.3818 13.6275C13.3914 13.4547 13.2378 13.3011 13.0506 13.3011Z" fill="#BBBBBB"/>
<path d="M11.6114 17.0786C11.4866 16.997 11.3522 16.8098 11.2514 16.6418C11.2994 16.5842 11.333 16.5074 11.333 16.4258C11.333 16.2386 11.1794 16.085 10.9922 16.085C10.805 16.085 10.6514 16.2386 10.6514 16.4258C10.6514 16.613 10.805 16.7666 10.9922 16.7666C11.0018 16.7666 11.0114 16.7666 11.0258 16.7618C11.1362 16.949 11.2946 17.1794 11.4722 17.2946C11.7986 17.5106 12.1586 17.645 12.4658 17.6738C12.6146 17.5586 12.6386 17.4722 12.6386 17.4194C12.389 17.4338 12.0002 17.3378 11.6114 17.0786Z" fill="#BBBBBB"/>
<path d="M12.0623 6.46041C11.8751 6.46041 11.7215 6.61401 11.7215 6.80121C11.7215 6.85881 11.7359 6.91641 11.7647 6.96441C11.6159 7.06041 11.3807 7.13241 11.1023 7.12761C10.8815 7.12281 10.1375 7.04601 9.92152 6.19641C10.1423 6.04281 10.2911 5.83641 10.3247 5.63961C10.3295 5.63961 10.3343 5.63961 10.3391 5.63961C10.5263 5.63961 10.6799 5.48601 10.6799 5.29881C10.6799 5.11161 10.5263 4.95801 10.3391 4.95801C10.1519 4.95801 9.99832 5.11161 9.99832 5.29881C9.99832 5.39001 10.0367 5.47641 10.0943 5.53401L10.0703 5.53881C10.0895 5.70201 9.87832 5.97081 9.53272 6.11001C9.35512 6.18201 8.74552 6.36441 8.28952 5.75001C8.07352 5.46201 7.92472 5.09241 7.87672 4.96281C7.79992 4.99641 7.71832 5.03001 7.63672 5.06841C7.69432 5.22201 7.84792 5.59641 8.07832 5.90841C8.34712 6.26841 8.71192 6.46041 9.10552 6.46041C9.27352 6.46041 9.45112 6.42681 9.62392 6.35481C9.64312 6.34521 9.66232 6.33561 9.68152 6.33081C9.87352 6.98361 10.3967 7.37721 11.0927 7.38681C11.1023 7.38681 11.1119 7.38681 11.1215 7.38681C11.4671 7.38681 11.7743 7.28601 11.9711 7.12761C11.9999 7.13241 12.0287 7.13721 12.0575 7.13721C12.2447 7.13721 12.3983 6.98361 12.3983 6.79641C12.4031 6.61401 12.2495 6.46041 12.0623 6.46041Z" fill="#BBBBBB"/>
<path d="M4.93452 9.21639C4.79532 9.21639 4.67532 9.29799 4.62252 9.41799C4.40172 9.45159 4.12332 9.41319 3.79212 9.06759C3.54252 8.80839 3.31692 8.15079 3.30732 8.11719C3.24012 8.19399 3.17772 8.27559 3.12012 8.35719C3.21132 8.59239 3.39372 9.02439 3.60492 9.24519C3.94092 9.59559 4.24332 9.68679 4.49292 9.68679C4.53612 9.68679 4.57452 9.68199 4.61292 9.67719C4.66092 9.80679 4.78572 9.89799 4.92972 9.89799C5.11692 9.89799 5.27052 9.74439 5.27052 9.55719C5.27532 9.36999 5.12172 9.21639 4.93452 9.21639Z" fill="#BBBBBB"/>
<path d="M5.3418 12.4319C5.1546 12.4319 5.001 12.5855 5.001 12.7727C5.001 12.7919 5.0058 12.8111 5.0058 12.8303C4.7466 12.9119 4.4106 12.9647 4.1226 12.7007C3.9498 12.5423 3.8778 12.2639 3.8442 12.0911C3.921 12.0287 3.969 11.9327 3.969 11.8271C3.969 11.6399 3.8154 11.4863 3.6282 11.4863C3.441 11.4863 3.2874 11.6399 3.2874 11.8271C3.2874 12.0047 3.4218 12.1487 3.5946 12.1631C3.633 12.3551 3.7194 12.6479 3.9018 12.8447C3.7722 13.0991 3.5562 13.4735 3.0906 13.4735C3.0858 13.4735 3.081 13.4735 3.081 13.4735C2.7354 13.4687 2.361 13.1135 2.3562 13.1087L2.3418 13.1279C2.3706 13.2575 2.4042 13.3823 2.4378 13.4975C2.6058 13.6127 2.841 13.7279 3.081 13.7327C3.0858 13.7327 3.0906 13.7327 3.0954 13.7327C3.681 13.7327 3.9642 13.2911 4.113 13.0079C4.2858 13.1135 4.4634 13.1519 4.6314 13.1519C4.8282 13.1519 5.0106 13.0991 5.1546 13.0511C5.2074 13.0895 5.2746 13.1087 5.3466 13.1087C5.5338 13.1087 5.6874 12.9551 5.6874 12.7679C5.6826 12.5855 5.529 12.4319 5.3418 12.4319Z" fill="#BBBBBB"/>
</svg>
