<svg width="24" height="24" viewBox="0 0 24 24" fill="none" xmlns="http://www.w3.org/2000/svg">
<path d="M21.37 12.0002C21.37 13.0002 20.51 13.7902 20.23 14.6702C19.95 15.5502 20.13 16.7502 19.58 17.5002C19.03 18.2502 17.85 18.4402 17.08 18.9902C16.31 19.5402 15.8 20.6102 14.9 20.9102C14 21.2102 13 20.6502 12 20.6502C11 20.6502 10 21.2002 9.10001 20.9202C8.20001 20.6402 7.67 19.5502 6.92 19.0002C6.17 18.4502 5 18.2802 4.42 17.5102C3.84 16.7402 4.07 15.5902 3.77 14.6802C3.47 13.7702 2.63 13.0002 2.63 12.0002C2.63 11.0002 3.49 10.2002 3.77 9.32017C4.05 8.44017 3.87 7.24017 4.42 6.49017C4.97 5.74017 6.15 5.56017 6.92 5.00017C7.69 4.44017 8.20001 3.39017 9.10001 3.09017C10 2.79017 11.03 3.36017 12 3.36017C12.97 3.36017 14 2.81017 14.9 3.09017C15.8 3.37017 16.33 4.46017 17.08 5.00017C17.83 5.54017 19.02 5.72017 19.58 6.49017C20.14 7.26017 19.93 8.41017 20.23 9.32017C20.53 10.2302 21.37 11.0002 21.37 12.0002Z" fill="#0028B6"/>
<path d="M8 12L11 15L16 10" stroke="white" stroke-linecap="round" stroke-linejoin="round"/>
<path d="M21.37 12.0002C21.37 13.0002 20.51 13.7902 20.23 14.6702C19.95 15.5502 20.13 16.7502 19.58 17.5002C19.03 18.2502 17.85 18.4402 17.08 18.9902C16.31 19.5402 15.8 20.6102 14.9 20.9102C14 21.2102 13 20.6502 12 20.6502C11 20.6502 10 21.2002 9.10001 20.9202C8.20001 20.6402 7.67 19.5502 6.92 19.0002C6.17 18.4502 5 18.2802 4.42 17.5102C3.84 16.7402 4.07 15.5902 3.77 14.6802C3.47 13.7702 2.63 13.0002 2.63 12.0002C2.63 11.0002 3.49 10.2002 3.77 9.32017C4.05 8.44017 3.87 7.24017 4.42 6.49017C4.97 5.74017 6.15 5.56017 6.92 5.00017C7.69 4.44017 8.20001 3.39017 9.10001 3.09017C10 2.79017 11.03 3.36017 12 3.36017C12.97 3.36017 14 2.81017 14.9 3.09017C15.8 3.37017 16.33 4.46017 17.08 5.00017C17.83 5.54017 19.02 5.72017 19.58 6.49017C20.14 7.26017 19.93 8.41017 20.23 9.32017C20.53 10.2302 21.37 11.0002 21.37 12.0002Z" stroke="#7770FF" stroke-linecap="round" stroke-linejoin="round"/>
</svg>
