<svg width="25" height="26" viewBox="0 0 25 26" fill="none" xmlns="http://www.w3.org/2000/svg">
<path d="M4.12735 0.887934C10.5109 1.28741 13.3936 0.75 15.4049 0.75C17.2754 0.75 18.1555 7.03196 17.3868 8.88701C16.662 10.6361 4.32805 10.7063 3.75381 10.0136C3.08974 9.21229 3.4737 5.86638 3.4737 4.71849" stroke="#2A2A2A" stroke-width="1.5" stroke-linecap="round" stroke-linejoin="round"/>
<path d="M4.16784 12.0615C-4.59888 20.3408 6.01128 18.8633 8.1816 20.6363" stroke="#2A2A2A" stroke-width="1.5" stroke-linecap="round" stroke-linejoin="round"/>
<path d="M4.16797 12.0615C4.28553 13.9515 4.39589 18.2225 4.32343 18.814" stroke="#2A2A2A" stroke-width="1.5" stroke-linecap="round" stroke-linejoin="round"/>
<path d="M13.0156 7.58818C13.0156 7.23661 13.0156 6.88497 13.0156 6.5332" stroke="#2A2A2A" stroke-width="1.5" stroke-linecap="round" stroke-linejoin="round"/>
<path d="M10.5215 7.67295C10.4995 7.39465 10.5216 6.75703 10.5216 6.5332" stroke="#2A2A2A" stroke-width="1.5" stroke-linecap="round" stroke-linejoin="round"/>
<path d="M12.6191 16.2528C24.5797 16.1051 26.4124 15.0215 21.3967 24.4779" stroke="#2A2A2A" stroke-width="1.5" stroke-linecap="round" stroke-linejoin="round"/>
<path d="M19.2274 24.7735C12.0896 24.4779 7.26684 27.1376 10.5946 18.1245" stroke="#2A2A2A" stroke-width="1.5" stroke-linecap="round" stroke-linejoin="round"/>
<path d="M10.7395 24.7735C9.19124 23.6183 7.46447 22.7006 5.96484 21.4243" stroke="#2A2A2A" stroke-width="1.5" stroke-linecap="round" stroke-linejoin="round"/>
<path d="M13.8242 12.0176C13.8752 13.2831 13.9214 14.5428 13.9214 15.8099" stroke="#2A2A2A" stroke-width="1.5" stroke-linecap="round" stroke-linejoin="round"/>
<path d="M13.8242 12.0176C14.4275 12.9936 14.9966 13.6288 15.7049 15.3174" stroke="#2A2A2A" stroke-width="1.5" stroke-linecap="round" stroke-linejoin="round"/>
<path d="M2.70354 6.17578C2.34017 6.27278 1.97409 6.25372 1.60352 6.28822" stroke="#2A2A2A" stroke-width="1.5" stroke-linecap="round" stroke-linejoin="round"/>
<path d="M1.05146 5.38965C1.05633 6.07038 1.05133 6.74054 0.996094 7.41174" stroke="#2A2A2A" stroke-width="1.5" stroke-linecap="round" stroke-linejoin="round"/>
<path d="M18.5977 5.89453C18.8722 5.86549 19.1485 5.82888 19.4226 5.78223" stroke="#2A2A2A" stroke-width="1.5" stroke-linecap="round" stroke-linejoin="round"/>
<path d="M19.6992 4.99609C19.7779 5.4419 19.7546 5.89395 19.7546 6.34416" stroke="#2A2A2A" stroke-width="1.5" stroke-linecap="round" stroke-linejoin="round"/>
<path d="M14.4187 5.96416C12.6165 5.76104 10.8707 5.8581 9.13867 6.13686" stroke="#2A2A2A" stroke-width="1.5" stroke-linecap="round" stroke-linejoin="round"/>
</svg>
